<svg width="48" height="48" viewBox="0 0 48 48" fill="none" xmlns="http://www.w3.org/2000/svg">
<g clip-path="url(#clip0_3527_19205)">
<path d="M32 43.9996V36.2596C32.075 35.306 31.9462 34.3472 31.622 33.4472C31.2979 32.5472 30.7859 31.7265 30.12 31.0396C36.4 30.3396 43 27.9596 43 17.0396C42.9995 14.2473 41.9254 11.562 40 9.53963C40.9117 7.09664 40.8473 4.39633 39.82 1.99963C39.82 1.99963 37.46 1.29963 32 4.95963C27.416 3.71727 22.584 3.71727 18 4.95963C12.54 1.29963 10.18 1.99963 10.18 1.99963C9.15275 4.39633 9.08829 7.09664 10 9.53963C8.06025 11.577 6.98505 14.2866 7 17.0996C7 27.9396 13.6 30.3196 19.88 31.0996C19.222 31.7796 18.7145 32.5904 18.3906 33.4795C18.0667 34.3685 17.9336 35.3158 18 36.2596V43.9996M18 37.9996C8 40.9996 8 32.9996 4 31.9996L18 37.9996Z" stroke="#535353" stroke-width="4.01768" stroke-linecap="round" stroke-linejoin="round"/>
</g>
<defs>
<clipPath id="clip0_3527_19205">
<rect width="48" height="48" fill="white"/>
</clipPath>
</defs>
</svg>
