<svg width="48" height="48" viewBox="0 0 48 48" fill="none" xmlns="http://www.w3.org/2000/svg">
<path d="M14 43.9997H8C6.93913 43.9997 5.92172 43.5783 5.17157 42.8282C4.42143 42.078 4 41.0606 4 39.9997V25.9998C4 24.9389 4.42143 23.9215 5.17157 23.1713C5.92172 22.4212 6.93913 21.9998 8 21.9998H14M28 17.9998V9.99975C28 8.40846 27.3679 6.88233 26.2426 5.75712C25.1174 4.6319 23.5913 3.99976 22 3.99976L14 21.9998V43.9997H36.56C37.5247 44.0107 38.4608 43.6726 39.1958 43.0478C39.9309 42.423 40.4154 41.5536 40.56 40.5997L43.32 22.5998C43.407 22.0265 43.3684 21.4411 43.2067 20.8843C43.045 20.3274 42.7642 19.8123 42.3837 19.3748C42.0032 18.9372 41.5322 18.5876 41.0031 18.3502C40.4741 18.1128 39.8998 17.9932 39.32 17.9998H28Z" stroke="#535353" stroke-width="4.01768" stroke-linecap="round" stroke-linejoin="round"/>
</svg>
