<svg width="48" height="48" viewBox="0 0 48 48" fill="none" xmlns="http://www.w3.org/2000/svg">
<path d="M10 33.9998H8C6.93913 33.9998 5.92172 33.5783 5.17157 32.8282C4.42143 32.078 4 31.0606 4 29.9998V9.99976C4 8.93889 4.42143 7.92147 5.17157 7.17133C5.92172 6.42118 6.93913 5.99976 8 5.99976H40C41.0609 5.99976 42.0783 6.42118 42.8284 7.17133C43.5786 7.92147 44 8.93889 44 9.99976V29.9998C44 31.0606 43.5786 32.078 42.8284 32.8282C42.0783 33.5783 41.0609 33.9998 40 33.9998H38" stroke="#535353" stroke-width="4.01768" stroke-linecap="round" stroke-linejoin="round"/>
<path d="M24 30L34 42H14L24 30Z" stroke="#535353" stroke-width="4.01768" stroke-linecap="round" stroke-linejoin="round"/>
</svg>
