<svg width="48" height="48" viewBox="0 0 48 48" fill="none" xmlns="http://www.w3.org/2000/svg">
<path d="M42 31.9996V15.9996C41.9993 15.2981 41.8141 14.6092 41.4631 14.0019C41.112 13.3946 40.6075 12.8903 40 12.5396L26 4.53956C25.3919 4.18849 24.7021 4.00366 24 4.00366C23.2979 4.00366 22.6081 4.18849 22 4.53956L8 12.5396C7.39253 12.8903 6.88796 13.3946 6.53692 14.0019C6.18589 14.6092 6.00072 15.2981 6 15.9996V31.9996C6.00072 32.701 6.18589 33.3899 6.53692 33.9972C6.88796 34.6045 7.39253 35.1088 8 35.4596L22 43.4596C22.6081 43.8106 23.2979 43.9955 24 43.9955C24.7021 43.9955 25.3919 43.8106 26 43.4596L40 35.4596C40.6075 35.1088 41.112 34.6045 41.4631 33.9972C41.8141 33.3899 41.9993 32.701 42 31.9996Z" stroke="#535353" stroke-width="4.01768" stroke-linecap="round" stroke-linejoin="round"/>
</svg>
