<svg width="53" height="52" viewBox="0 0 53 52" fill="none" xmlns="http://www.w3.org/2000/svg">
<g opacity="0.5" clip-path="url(#clip0_3402_28006)">
<path d="M35.1693 34.6667L26.5026 26L17.8359 34.6667" stroke="#535353" stroke-width="4.33333" stroke-linecap="round" stroke-linejoin="round"/>
<path d="M26.5 26V45.5" stroke="#535353" stroke-width="4.33333" stroke-linecap="round" stroke-linejoin="round"/>
<path d="M44.6795 39.845C46.7927 38.693 48.4621 36.87 49.4242 34.6637C50.3863 32.4575 50.5863 29.9937 49.9926 27.6612C49.3989 25.3287 48.0454 23.2603 46.1456 21.7825C44.2458 20.3047 41.908 19.5016 39.5011 19.5H36.7711C36.1153 16.9634 34.893 14.6084 33.196 12.6122C31.4991 10.616 29.3716 9.03039 26.9737 7.9747C24.5757 6.919 21.9697 6.42066 19.3514 6.51713C16.7331 6.61359 14.1708 7.30236 11.857 8.53165C9.54326 9.76095 7.53828 11.4988 5.99282 13.6145C4.44735 15.7302 3.40163 18.1687 2.93426 20.7467C2.46689 23.3248 2.59003 25.9752 3.29443 28.4988C3.99883 31.0224 5.26616 33.3534 7.00114 35.3167" stroke="#535353" stroke-width="4.33333" stroke-linecap="round" stroke-linejoin="round"/>
<path d="M35.1693 34.6667L26.5026 26L17.8359 34.6667" stroke="#535353" stroke-width="4.33333" stroke-linecap="round" stroke-linejoin="round"/>
</g>
<defs>
<clipPath id="clip0_3402_28006">
<rect width="52" height="52" fill="white" transform="translate(0.5)"/>
</clipPath>
</defs>
</svg>
